<svg xmlns="http://www.w3.org/2000/svg"  viewBox="0 0 100 100" width="100px" height="100px" baseProfile="basic"><path fill="#6475a5" d="M81.134,83.935c-0.861,0-1.717-0.345-2.331-1.02c-1.127-1.243-0.999-3.134,0.286-4.224 c8.587-7.277,13.932-17.386,13.932-28.714c0-10.679-4.831-21.002-13.932-28.714c-1.286-1.09-1.414-2.981-0.286-4.224 c1.129-1.243,3.087-1.367,4.373-0.277C93.676,25.66,99,37.418,99,49.897c0,13.027-5.916,24.898-15.824,33.295 C82.588,83.69,81.859,83.935,81.134,83.935z"/><path fill="#1f212b" d="M81.134,84.935c-1.174,0-2.293-0.491-3.071-1.348c-0.728-0.803-1.09-1.833-1.02-2.901 c0.07-1.074,0.568-2.053,1.4-2.758c8.756-7.421,13.578-17.348,13.578-27.952c0-10.605-4.822-20.532-13.578-27.952 c-0.832-0.705-1.33-1.685-1.4-2.758c-0.07-1.068,0.292-2.098,1.019-2.9c1.486-1.637,4.071-1.801,5.761-0.368 C94.255,24.84,100,36.879,100,49.897c0,13.121-5.745,25.216-16.178,34.058C83.077,84.587,82.122,84.935,81.134,84.935z M81.133,17.017c-0.588,0-1.173,0.235-1.59,0.694c-0.359,0.396-0.538,0.902-0.504,1.425c0.034,0.527,0.282,1.012,0.697,1.364 c9.212,7.806,14.285,18.274,14.285,29.477c0,11.202-5.073,21.67-14.285,29.477c-0.415,0.352-0.663,0.836-0.697,1.364 c-0.034,0.523,0.145,1.029,0.505,1.426c0.733,0.808,2.144,0.899,2.985,0.186C92.506,73.974,98,62.42,98,49.897 c0-12.421-5.494-23.917-15.471-32.373C82.128,17.184,81.629,17.017,81.133,17.017z"/><path fill="#9898ad" d="M59.317,48.438c0.663-3.437,5.333-14.861-13.696-29.527c0,0,0.545,8.358-13.047,27.47 c-13.6,19.105,8.198,30.694,8.198,30.694s-5.741-9.893,0.031-20.408c2.214-4.032,4.114-4.114,9.013-14.515 c0,0,2.759,3.894,1.319,12.337c-2.154,12.759,8.005,8.171,8.183,8.349c2.057,6.172,0,10.286-2.436,14.237 c-0.445,0.254,23.008-16.294,8.608-32.751C63.816,46.418,61.314,47.919,59.317,48.438z"/><path fill="#1f212b" d="M56.877,78.076c-0.324,0-0.643-0.156-0.834-0.443c-0.098-0.146-0.331-0.587-0.006-1.079 l-0.008-0.004c2.29-3.714,4.065-7.242,2.609-12.507c-1.604,0.435-4.729,1.07-6.868-0.841c-1.8-1.608-2.346-4.595-1.623-8.878 c0.818-4.801,0.237-8.02-0.356-9.824c-2.685,5.414-4.42,7.593-5.843,9.38c-0.822,1.033-1.532,1.925-2.27,3.269 c-5.438,9.906-0.098,19.331-0.043,19.425c0.224,0.386,0.165,0.874-0.146,1.196c-0.311,0.322-0.796,0.399-1.189,0.189 c-0.425-0.226-10.444-5.65-12.737-15.364c-1.281-5.432,0.13-11.082,4.195-16.793c13.233-18.607,12.869-26.745,12.863-26.825 c-0.025-0.392,0.181-0.763,0.527-0.947c0.347-0.186,0.769-0.15,1.081,0.09C63.169,31.173,61.796,42.015,60.71,46.846 c1.369-0.666,2.874-1.74,3.997-3.146c0.185-0.231,0.463-0.369,0.759-0.375c0.314-0.014,0.58,0.118,0.775,0.341 c3.693,4.221,5.324,8.837,4.849,13.72c-0.975,10.007-10.558,18.128-13.472,20.379l-0.062,0.047 c-0.055,0.05-0.114,0.094-0.179,0.131C57.221,78.033,57.048,78.076,56.877,78.076z M46.455,20.847 c-0.566,3.555-2.986,11.939-13.067,26.114c-3.717,5.222-5.021,10.327-3.877,15.174c1.377,5.835,6.003,10.068,9.018,12.288 c-1.343-3.889-2.642-10.879,1.396-18.237c0.82-1.493,1.616-2.493,2.459-3.552c1.515-1.903,3.4-4.271,6.526-10.908 c0.151-0.321,0.462-0.539,0.816-0.57c0.35-0.033,0.698,0.127,0.904,0.418c0.122,0.173,2.98,4.333,1.488,13.083 c-0.592,3.509-0.252,5.948,0.983,7.052c1.565,1.399,4.407,0.581,5.476,0.273c0.518-0.149,1.008-0.29,1.446,0.15 c0.109,0.109,0.191,0.243,0.24,0.39c1.388,4.161,0.998,7.484-0.105,10.384c3.666-3.558,8.311-9.254,8.94-15.715 c0.388-3.982-0.835-7.791-3.637-11.335c-1.638,1.672-3.847,3.018-5.896,3.549c-0.331,0.085-0.686-0.004-0.936-0.239 s-0.362-0.582-0.297-0.918c0.054-0.282,0.134-0.616,0.226-1C59.569,43.059,61.889,33.408,46.455,20.847z"/><path fill="#6475a5" d="M18.901,83.935c0.861,0,1.717-0.345,2.331-1.02c1.127-1.243,0.999-3.134-0.286-4.224 C12.358,71.414,7.013,61.305,7.013,49.977c0-10.679,4.831-21.002,13.932-28.714c1.286-1.09,1.414-2.981,0.286-4.224 c-1.129-1.243-3.087-1.367-4.373-0.277C6.358,25.66,1.035,37.418,1.035,49.897c0,13.027,5.916,24.898,15.824,33.295 C17.447,83.69,18.176,83.935,18.901,83.935z"/><path fill="#1f212b" d="M18.9,84.935c-0.988,0-1.943-0.348-2.688-0.98C5.78,75.114,0.035,63.019,0.035,49.897 c0-13.019,5.745-25.058,16.177-33.898c1.689-1.433,4.272-1.269,5.76,0.367c0.728,0.802,1.09,1.833,1.02,2.901 c-0.07,1.073-0.567,2.053-1.399,2.758c-8.756,7.42-13.578,17.347-13.578,27.952s4.822,20.532,13.578,27.952 c0.832,0.706,1.329,1.685,1.399,2.758c0.07,1.068-0.292,2.099-1.019,2.9C21.193,84.444,20.074,84.935,18.9,84.935z M18.901,17.017 c-0.496,0-0.995,0.167-1.396,0.507c-9.976,8.455-15.47,19.952-15.47,32.373c0,12.524,5.494,24.077,15.47,32.532 c0.842,0.714,2.25,0.624,2.986-0.187c0.359-0.396,0.538-0.902,0.504-1.425c-0.034-0.528-0.281-1.012-0.696-1.364 C11.087,71.647,6.014,61.179,6.014,49.977S11.087,28.306,20.299,20.5c0.415-0.352,0.662-0.836,0.696-1.364 c0.034-0.523-0.145-1.029-0.505-1.426C20.074,17.251,19.489,17.017,18.901,17.017z"/><path fill="#1f212b" d="M56.342,39.055c-0.213,0-0.41-0.137-0.477-0.35c-0.008-0.024-0.766-2.411-2.184-5.008 c-0.133-0.243-0.044-0.546,0.199-0.679s0.545-0.043,0.678,0.199c1.468,2.688,2.229,5.087,2.26,5.188 c0.083,0.264-0.063,0.544-0.327,0.627C56.441,39.047,56.392,39.055,56.342,39.055z"/><path fill="#1f212b" d="M39.93,41.886c-0.097,0-0.194-0.028-0.28-0.086c-0.229-0.154-0.289-0.465-0.134-0.694 c1.037-1.536,1.907-2.887,2.585-4.017c2.74-4.566,4.936-11.646,4.958-11.717c0.046-0.152,0.162-0.272,0.312-0.325 c0.151-0.053,0.316-0.032,0.447,0.058c0.099,0.067,2.463,1.693,5.022,5.349c0.159,0.226,0.104,0.538-0.122,0.696 c-0.227,0.158-0.539,0.104-0.696-0.123c-1.744-2.489-3.402-4.004-4.226-4.679c-0.625,1.911-2.51,7.375-4.838,11.254 c-0.688,1.146-1.566,2.512-2.614,4.062C40.247,41.809,40.09,41.886,39.93,41.886z"/><g><path fill="#1f212b" d="M36.4,46.911c-0.103,0-0.206-0.031-0.296-0.097c-0.223-0.163-0.271-0.476-0.107-0.699 c0.002-0.002,0.842-1.149,1.975-2.766c0.158-0.227,0.47-0.28,0.696-0.123c0.226,0.159,0.281,0.47,0.122,0.696 c-1.14,1.629-1.986,2.784-1.986,2.784C36.706,46.84,36.554,46.911,36.4,46.911z"/></g><g><path fill="#1f212b" d="M64.457,64.953c-0.101,0-0.202-0.03-0.291-0.093c-0.225-0.16-0.276-0.473-0.116-0.697 c0.6-0.839,1.115-1.717,1.532-2.611C65.699,61.3,66,61.194,66.247,61.31c0.25,0.117,0.358,0.415,0.241,0.665 c-0.443,0.949-0.99,1.88-1.624,2.769C64.767,64.88,64.612,64.953,64.457,64.953z"/></g><g><path fill="#1f212b" d="M67.01,59.559c-0.041,0-0.082-0.005-0.124-0.016c-0.268-0.068-0.429-0.341-0.36-0.608 c0.888-3.463,0.355-6.867-1.424-9.105c-0.172-0.216-0.136-0.531,0.08-0.703c0.218-0.169,0.531-0.137,0.703,0.081 c1.973,2.481,2.574,6.21,1.609,9.975C67.437,59.409,67.233,59.559,67.01,59.559z"/></g></svg>